<svg xmlns="http://www.w3.org/2000/svg" xmlns:xlink="http://www.w3.org/1999/xlink" width="500" zoomAndPan="magnify" viewBox="0 0 375 374.999991" height="500" preserveAspectRatio="xMidYMid meet" version="1.0"><defs><g/><clipPath id="1ffdb0993d"><path d="M 37.5 37.5 L 337.5 37.5 L 337.5 337.5 L 37.5 337.5 Z M 37.5 37.5 " clip-rule="nonzero"/></clipPath><clipPath id="1c0c8c36fa"><path d="M 187.5 37.5 C 104.65625 37.5 37.5 104.65625 37.5 187.5 C 37.5 270.34375 104.65625 337.5 187.5 337.5 C 270.34375 337.5 337.5 270.34375 337.5 187.5 C 337.5 104.65625 270.34375 37.5 187.5 37.5 Z M 187.5 37.5 " clip-rule="nonzero"/></clipPath></defs><g clip-path="url(#1ffdb0993d)"><g clip-path="url(#1c0c8c36fa)"><path fill="#272727" d="M 37.5 37.5 L 337.5 37.5 L 337.5 337.5 L 37.5 337.5 Z M 37.5 37.5 " fill-opacity="1" fill-rule="nonzero"/></g></g><g fill="#272727" fill-opacity="1"><g transform="translate(188.386935, 232.597313)"><g><path d="M 67.207031 -128.9375 C 87.203125 -128.9375 103.277344 -123.714844 115.429688 -113.269531 C 121.84375 -107.757812 126.652344 -101.070312 129.855469 -93.203125 C 132.921875 -85.675781 134.457031 -77.175781 134.457031 -67.707031 L 134.457031 -55.796875 L 75.355469 -55.796875 L 75.355469 -67.707031 C 75.355469 -71.347656 74.621094 -73.984375 73.148438 -75.621094 C 72.003906 -76.894531 69.96875 -77.53125 67.039062 -77.53125 C 63.542969 -77.53125 61.230469 -76.777344 60.101562 -75.273438 C 58.179688 -72.710938 57.21875 -68.570312 57.21875 -62.859375 L 57.21875 -52.160156 C 57.21875 -46.535156 58.191406 -42.40625 60.140625 -39.777344 C 60.644531 -39.097656 61.277344 -38.59375 62.039062 -38.257812 C 63.199219 -37.746094 64.753906 -37.492188 66.707031 -37.492188 C 70.550781 -37.492188 73.148438 -38.167969 74.5 -39.519531 C 75.851562 -40.871094 76.527344 -43.246094 76.527344 -46.644531 L 76.527344 -58.554688 L 134.457031 -58.554688 L 134.457031 -46.644531 C 134.457031 -37.253906 132.964844 -28.839844 129.988281 -21.402344 C 126.859375 -13.597656 122.160156 -6.972656 115.886719 -1.53125 C 104.007812 8.769531 87.78125 13.917969 67.207031 13.917969 C 44.316406 13.917969 26.664062 7.746094 14.253906 -4.59375 C 1.824219 -16.953125 -4.386719 -34.59375 -4.386719 -57.511719 C -4.386719 -80.429688 1.824219 -98.066406 14.253906 -110.425781 C 26.664062 -122.769531 44.316406 -128.9375 67.207031 -128.9375 Z M 67.207031 -105.113281 C 50.867188 -105.113281 38.816406 -101.253906 31.050781 -93.535156 C 23.308594 -85.832031 19.433594 -73.824219 19.433594 -57.511719 C 19.433594 -41.195312 23.308594 -29.1875 31.050781 -21.484375 C 38.816406 -13.765625 50.867188 -9.90625 67.207031 -9.90625 C 81.851562 -9.90625 92.878906 -13.113281 100.28125 -19.53125 C 107.179688 -25.515625 110.632812 -34.554688 110.632812 -46.644531 L 122.542969 -46.644531 L 122.542969 -34.730469 L 88.4375 -34.730469 L 88.4375 -46.644531 L 100.351562 -46.644531 C 100.351562 -36.667969 97.347656 -28.675781 91.34375 -22.671875 C 85.339844 -16.667969 77.128906 -13.667969 66.707031 -13.667969 C 61.410156 -13.667969 56.65625 -14.597656 52.4375 -16.453125 C 47.824219 -18.484375 44.011719 -21.53125 41.003906 -25.589844 C 35.929688 -32.433594 33.394531 -41.289062 33.394531 -52.160156 L 33.394531 -62.859375 C 33.394531 -73.867188 35.945312 -82.769531 41.042969 -89.566406 C 44.078125 -93.613281 47.945312 -96.636719 52.648438 -98.644531 C 56.886719 -100.449219 61.683594 -101.355469 67.039062 -101.355469 C 71.769531 -101.355469 76.078125 -100.59375 79.96875 -99.074219 C 84.210938 -97.414062 87.84375 -94.90625 90.855469 -91.558594 C 96.40625 -85.394531 99.179688 -77.441406 99.179688 -67.707031 L 87.269531 -67.707031 L 87.269531 -79.621094 L 122.542969 -79.621094 L 122.542969 -67.707031 L 110.632812 -67.707031 C 110.632812 -79.890625 107.054688 -89.054688 99.898438 -95.203125 C 92.214844 -101.8125 81.316406 -105.113281 67.207031 -105.113281 Z M 67.207031 -105.113281 "/></g></g></g><g fill="#ffffff" fill-opacity="1"><g transform="translate(188.386935, 232.597313)"><g><path d="M 67.203125 -117.03125 C 84.253906 -117.03125 97.738281 -112.765625 107.65625 -104.234375 C 117.582031 -95.710938 122.546875 -83.535156 122.546875 -67.703125 L 87.265625 -67.703125 C 87.265625 -74.390625 85.507812 -79.679688 82 -83.578125 C 78.488281 -87.484375 73.503906 -89.4375 67.046875 -89.4375 C 59.578125 -89.4375 54.085938 -87.097656 50.578125 -82.421875 C 47.066406 -77.742188 45.3125 -71.222656 45.3125 -62.859375 L 45.3125 -52.15625 C 45.3125 -43.914062 47.066406 -37.425781 50.578125 -32.6875 C 54.085938 -27.945312 59.460938 -25.578125 66.703125 -25.578125 C 73.835938 -25.578125 79.242188 -27.414062 82.921875 -31.09375 C 86.597656 -34.769531 88.4375 -39.953125 88.4375 -46.640625 L 122.546875 -46.640625 C 122.546875 -30.929688 117.722656 -18.894531 108.078125 -10.53125 C 98.441406 -2.175781 84.816406 2 67.203125 2 C 47.585938 2 32.734375 -3.015625 22.640625 -13.046875 C 12.554688 -23.078125 7.515625 -37.898438 7.515625 -57.515625 C 7.515625 -77.128906 12.554688 -91.953125 22.640625 -101.984375 C 32.734375 -112.015625 47.585938 -117.03125 67.203125 -117.03125 Z M 67.203125 -117.03125 "/></g></g></g><path stroke-linecap="butt" transform="matrix(0.75, -0.000000000000000372, 0.000000000000000372, 0.75, 76.942396, 116.714992)" fill="none" stroke-linejoin="miter" d="M -0.00132 1.999802 L 65.186184 1.999802 " stroke="#ffffff" stroke-width="4" stroke-opacity="1" stroke-miterlimit="4"/><g fill="#ffffff" fill-opacity="1"><g transform="translate(111.103782, 265.444142)"><g><path d="M -0.5 -13.625 L 3.234375 -13.625 L 6.078125 -9.265625 L 8.921875 -13.625 L 12.65625 -13.625 L 7.625 -6.109375 L 7.625 0 L 4.53125 0 L 4.53125 -6.109375 Z M -0.5 -13.625 "/></g></g></g><g fill="#ffffff" fill-opacity="1"><g transform="translate(124.330404, 265.444142)"><g><path d="M 7.90625 -13.625 L 13.40625 0 L 10.078125 0 L 9.0625 -2.71875 L 3.875 -2.71875 L 2.875 0 L -0.46875 0 L 5.03125 -13.625 Z M 8.015625 -5.453125 L 6.484375 -9.40625 L 6.453125 -9.40625 L 4.9375 -5.453125 Z M 8.015625 -5.453125 "/></g></g></g><g fill="#ffffff" fill-opacity="1"><g transform="translate(138.349587, 265.444142)"><g><path d="M 4.09375 -8.453125 L 4.09375 0 L 0.984375 0 L 0.984375 -13.625 L 4.09375 -13.625 L 9.515625 -5.171875 L 9.546875 -5.171875 L 9.546875 -13.625 L 12.65625 -13.625 L 12.65625 0 L 9.546875 0 L 4.125 -8.453125 Z M 4.09375 -8.453125 "/></g></g></g><g fill="#ffffff" fill-opacity="1"><g transform="translate(153.06226, 265.444142)"><g><path d="M 4.09375 -5.46875 L 4.09375 0 L 0.984375 0 L 0.984375 -13.625 L 4.09375 -13.625 L 4.09375 -8.1875 L 8.484375 -8.1875 L 8.484375 -13.625 L 11.59375 -13.625 L 11.59375 0 L 8.484375 0 L 8.484375 -5.46875 Z M 4.09375 -5.46875 "/></g></g></g><g fill="#ffffff" fill-opacity="1"><g transform="translate(166.718185, 265.444142)"><g><path d="M 8.78125 -13.625 L 8.78125 -10.90625 L 4.09375 -10.90625 L 4.09375 -8.1875 L 8.59375 -8.1875 L 8.59375 -5.46875 L 4.09375 -5.46875 L 4.09375 -2.71875 L 8.78125 -2.71875 L 8.78125 0 L 0.984375 0 L 0.984375 -13.625 Z M 8.78125 -13.625 "/></g></g></g><g fill="#ffffff" fill-opacity="1"><g transform="translate(177.368983, 265.444142)"><g><path d="M 4.09375 -8.453125 L 4.09375 0 L 0.984375 0 L 0.984375 -13.625 L 4.09375 -13.625 L 9.515625 -5.171875 L 9.546875 -5.171875 L 9.546875 -13.625 L 12.65625 -13.625 L 12.65625 0 L 9.546875 0 L 4.125 -8.453125 Z M 4.09375 -8.453125 "/></g></g></g><g fill="#ffffff" fill-opacity="1"><g transform="translate(192.081655, 265.444142)"><g><path d="M 13.3125 -7.625 L 13.3125 -4.671875 C 12.957031 -3.054688 12.1875 -1.832031 11 -1 C 9.8125 -0.164062 8.484375 0.25 7.015625 0.25 C 5.179688 0.25 3.613281 -0.4375 2.3125 -1.8125 C 1.019531 -3.1875 0.375 -4.847656 0.375 -6.796875 C 0.375 -8.785156 1.003906 -10.460938 2.265625 -11.828125 C 3.535156 -13.191406 5.117188 -13.875 7.015625 -13.875 C 9.234375 -13.875 10.984375 -13.097656 12.265625 -11.546875 L 10.234375 -9.3125 C 9.515625 -10.476562 8.503906 -11.0625 7.203125 -11.0625 C 6.242188 -11.0625 5.425781 -10.644531 4.75 -9.8125 C 4.070312 -8.988281 3.734375 -7.984375 3.734375 -6.796875 C 3.734375 -5.648438 4.070312 -4.664062 4.75 -3.84375 C 5.425781 -3.019531 6.242188 -2.609375 7.203125 -2.609375 C 7.992188 -2.609375 8.679688 -2.847656 9.265625 -3.328125 C 9.859375 -3.804688 10.15625 -4.441406 10.15625 -5.234375 L 7.015625 -5.234375 L 7.015625 -7.625 Z M 13.3125 -7.625 "/></g></g></g><g fill="#ffffff" fill-opacity="1"><g transform="translate(206.843869, 265.444142)"><g/></g></g><g fill="#ffffff" fill-opacity="1"><g transform="translate(212.425587, 265.444142)"><g><path d="M 8.234375 -2.8125 C 8.710938 -2.8125 9.175781 -2.878906 9.625 -3.015625 C 10.070312 -3.160156 10.398438 -3.300781 10.609375 -3.4375 L 10.921875 -3.65625 L 12.234375 -1 C 12.191406 -0.96875 12.128906 -0.925781 12.046875 -0.875 C 11.972656 -0.820312 11.796875 -0.71875 11.515625 -0.5625 C 11.234375 -0.414062 10.929688 -0.285156 10.609375 -0.171875 C 10.296875 -0.0664062 9.878906 0.0234375 9.359375 0.109375 C 8.847656 0.203125 8.316406 0.25 7.765625 0.25 C 6.492188 0.25 5.289062 -0.0625 4.15625 -0.6875 C 3.019531 -1.3125 2.101562 -2.164062 1.40625 -3.25 C 0.71875 -4.34375 0.375 -5.519531 0.375 -6.78125 C 0.375 -7.738281 0.578125 -8.660156 0.984375 -9.546875 C 1.398438 -10.429688 1.945312 -11.1875 2.625 -11.8125 C 3.300781 -12.4375 4.085938 -12.9375 4.984375 -13.3125 C 5.890625 -13.6875 6.816406 -13.875 7.765625 -13.875 C 8.640625 -13.875 9.445312 -13.769531 10.1875 -13.5625 C 10.9375 -13.351562 11.46875 -13.144531 11.78125 -12.9375 L 12.234375 -12.625 L 10.921875 -9.96875 C 10.835938 -10.039062 10.71875 -10.125 10.5625 -10.21875 C 10.414062 -10.3125 10.109375 -10.429688 9.640625 -10.578125 C 9.179688 -10.734375 8.710938 -10.8125 8.234375 -10.8125 C 7.492188 -10.8125 6.820312 -10.691406 6.21875 -10.453125 C 5.625 -10.210938 5.15625 -9.894531 4.8125 -9.5 C 4.46875 -9.101562 4.203125 -8.675781 4.015625 -8.21875 C 3.835938 -7.757812 3.75 -7.296875 3.75 -6.828125 C 3.75 -5.785156 4.132812 -4.851562 4.90625 -4.03125 C 5.6875 -3.21875 6.796875 -2.8125 8.234375 -2.8125 Z M 8.234375 -2.8125 "/></g></g></g><g fill="#ffffff" fill-opacity="1"><g transform="translate(225.932911, 265.444142)"><g><path d="M 4.09375 -5.46875 L 4.09375 0 L 0.984375 0 L 0.984375 -13.625 L 4.09375 -13.625 L 4.09375 -8.1875 L 8.484375 -8.1875 L 8.484375 -13.625 L 11.59375 -13.625 L 11.59375 0 L 8.484375 0 L 8.484375 -5.46875 Z M 4.09375 -5.46875 "/></g></g></g><g fill="#ffffff" fill-opacity="1"><g transform="translate(239.588836, 265.444142)"><g><path d="M 8.78125 -13.625 L 8.78125 -10.90625 L 4.09375 -10.90625 L 4.09375 -8.1875 L 8.59375 -8.1875 L 8.59375 -5.46875 L 4.09375 -5.46875 L 4.09375 -2.71875 L 8.78125 -2.71875 L 8.78125 0 L 0.984375 0 L 0.984375 -13.625 Z M 8.78125 -13.625 "/></g></g></g><g fill="#ffffff" fill-opacity="1"><g transform="translate(250.239634, 265.444142)"><g><path d="M 4.09375 -8.453125 L 4.09375 0 L 0.984375 0 L 0.984375 -13.625 L 4.09375 -13.625 L 9.515625 -5.171875 L 9.546875 -5.171875 L 9.546875 -13.625 L 12.65625 -13.625 L 12.65625 0 L 9.546875 0 L 4.125 -8.453125 Z M 4.09375 -8.453125 "/></g></g></g><g fill="#272727" fill-opacity="1"><g transform="translate(80.266517, 228.830797)"><g><path d="M 78.289062 11.132812 L 32.621094 11.132812 L 32.621094 -41.722656 L 43.753906 -41.722656 L 34.414062 -35.664062 L -19.394531 -118.644531 L 47.21875 -118.644531 L 71.058594 -77.285156 L 61.410156 -71.726562 L 61.410156 -82.859375 L 62.035156 -82.859375 L 62.035156 -71.726562 L 52.390625 -77.285156 L 76.230469 -118.644531 L 140.652344 -118.644531 L 87.671875 -35.726562 L 78.289062 -41.722656 L 89.421875 -41.722656 L 89.421875 11.132812 Z M 78.289062 -11.132812 L 78.289062 0 L 67.15625 0 L 67.15625 -44.976562 L 110.941406 -113.503906 L 120.324219 -107.511719 L 120.324219 -96.375 L 82.664062 -96.375 L 82.664062 -107.511719 L 92.308594 -101.949219 L 68.46875 -60.589844 L 54.980469 -60.589844 L 31.140625 -101.949219 L 40.785156 -107.511719 L 40.785156 -96.375 L 1.09375 -96.375 L 1.09375 -107.511719 L 10.4375 -113.566406 L 54.886719 -45.015625 L 54.886719 0 L 43.753906 0 L 43.753906 -11.132812 Z M 78.289062 -11.132812 "/></g></g></g><g fill="#ffffff" fill-opacity="1"><g transform="translate(80.266517, 228.830797)"><g><path d="M 78.296875 0 L 43.75 0 L 43.75 -41.71875 L 1.09375 -107.515625 L 40.78125 -107.515625 L 61.40625 -71.71875 L 62.03125 -71.71875 L 82.671875 -107.515625 L 120.328125 -107.515625 L 78.296875 -41.71875 Z M 78.296875 0 "/></g></g></g></svg>